<svg width="36" height="38" viewBox="0 0 36 38" fill="none" xmlns="http://www.w3.org/2000/svg">
<rect x="4.03174" y="6.7417" width="27.5806" height="20.2258" fill="#72757E"/>
<path d="M4.99288 33.5603H27.2386L26.1761 30.0691L28.7176 32.2826L31.0468 34.4011L35.2904 38V3.91875C35.1843 1.80025 33.387 0 31.1592 0L5.00068 0.00475C2.77439 0.00475 0.967773 1.80817 0.967773 3.92667V29.64C0.967773 31.8741 2.77127 33.5603 4.99288 33.5603ZM21.449 8.99808L21.3975 9.01708L21.4162 8.99808H21.449ZM9.54374 11.0073C12.4034 8.89517 15.0541 8.9965 15.0541 8.9965L15.2678 9.21025C11.7685 10.0573 10.1818 11.6438 10.1818 11.6438C10.1818 11.6438 10.6062 11.4333 11.3472 11.1118C16.0603 9.23083 21.2072 9.367 25.9718 11.7483C25.9718 11.7483 24.382 10.2647 21.098 9.31475L21.3881 9.025C21.8421 9.02658 24.2447 9.11208 26.8158 11.02C26.8158 11.02 29.6927 16.0075 29.6927 22.135C29.5975 22.0178 27.9079 24.7728 23.5598 24.8678C23.5598 24.8678 22.8235 24.0223 22.2993 23.2845C24.8422 22.5435 25.7939 21.0615 25.7939 21.0615C24.9593 21.5951 24.1979 21.9117 23.5801 22.2284C22.63 22.6527 21.6783 22.8617 20.7282 23.0755C16.2288 23.8165 13.703 22.5767 11.316 21.5935L10.5001 21.1723C10.5001 21.1723 11.4502 22.6543 13.8918 23.3953C13.2506 24.1379 12.6156 24.9818 12.6156 24.9818C8.26912 24.8773 6.68404 22.1223 6.68404 22.1223C6.68404 15.9853 9.54374 11.0073 9.54374 11.0073Z" fill="#16161A"/>
<path d="M22.1129 20.2259C23.2953 20.2259 24.2581 19.2636 24.2581 18.0767C24.2581 16.8979 23.3003 15.9355 22.1129 15.9355V15.9404C20.9356 15.9404 19.9711 16.8995 19.9678 18.0863C19.9678 19.2636 20.9306 20.2259 22.1129 20.2259Z" fill="#16161A"/>
<path d="M14.452 20.2259C15.4654 20.2259 16.2907 19.2636 16.2907 18.0767C16.2907 16.8979 15.4711 15.9355 14.4577 15.9355L14.452 15.9404C13.4386 15.9404 12.6133 16.8995 12.6133 18.0863C12.6133 19.2636 13.4386 20.2259 14.452 20.2259Z" fill="#16161A"/>
</svg>
