<svg width="24" height="20" viewBox="0 0 24 20" fill="none" xmlns="http://www.w3.org/2000/svg">
<path d="M23.0074 3.1808C22.1519 3.55611 21.2402 3.80488 20.2897 3.92567C21.2675 3.34185 22.0138 2.42443 22.3647 1.31864C21.453 1.86219 20.4464 2.24612 19.3737 2.46038C18.508 1.53865 17.2743 0.967773 15.9283 0.967773C13.317 0.967773 11.2147 3.08733 11.2147 5.68574C11.2147 6.05961 11.2463 6.4191 11.324 6.76134C7.40264 6.57009 3.93283 4.69067 1.60189 1.82768C1.19495 2.53372 0.956247 3.34185 0.956247 4.21182C0.956247 5.84535 1.79746 7.29338 3.05136 8.13172C2.29355 8.11734 1.55013 7.89733 0.920298 7.55078C0.920298 7.56516 0.920298 7.58385 0.920298 7.60255C0.920298 9.89466 2.55526 11.7985 4.69927 12.2371C4.31533 12.3421 3.89689 12.3924 3.46262 12.3924C3.16065 12.3924 2.8558 12.3752 2.56964 12.3119C3.18078 14.1798 4.91497 15.5531 6.97701 15.5976C5.37224 16.853 3.33464 17.6093 1.1288 17.6093C0.74199 17.6093 0.370995 17.5921 0 17.5446C2.08936 18.892 4.56554 19.6613 7.23584 19.6613C15.9154 19.6613 20.6607 12.4715 20.6607 6.23935C20.6607 6.03085 20.6535 5.82953 20.6434 5.62966C21.5795 4.96532 22.3661 4.13561 23.0074 3.1808Z" fill="#72757E"/>
</svg>
