<svg width="25" height="20" viewBox="0 0 25 20" fill="none" xmlns="http://www.w3.org/2000/svg">
<path d="M8.93896 11.3843V11.3857H9.66362L8.93896 11.3843Z" fill="#72757E"/>
<path d="M16.186 11.3843V11.3857H16.9107L16.186 11.3843Z" fill="#72757E"/>
<path d="M24.2581 9.21202C24.2581 7.61343 22.9581 6.3134 21.3595 6.3134C20.7203 6.3134 20.1131 6.5221 19.6174 6.90037C18 5.77716 15.8811 5.10758 13.6274 4.93801L14.8434 2.08578L18.3812 2.91189C18.4942 4.00611 19.4102 4.8641 20.5334 4.8641C21.732 4.8641 22.7073 3.88872 22.7073 2.69014C22.7073 1.49157 21.732 0.516184 20.5334 0.516184C19.774 0.516184 19.1058 0.908946 18.7174 1.50171L14.5825 0.535025C14.2318 0.455314 13.8883 0.633578 13.7492 0.956773L12.068 4.89888C9.63461 4.98294 7.31573 5.66846 5.56497 6.86269C5.08815 6.50906 4.49683 6.3134 3.86638 6.3134C2.2678 6.3134 0.967773 7.61343 0.967773 9.21202C0.967773 10.2715 1.54605 11.2294 2.43302 11.7208C2.42143 11.8483 2.41708 11.9787 2.41708 12.1106C2.41708 16.1064 6.96789 19.3572 12.5622 19.3572C18.1551 19.3572 22.7073 16.1064 22.7073 12.1106C22.7073 11.9976 22.703 11.886 22.6957 11.7744C23.6407 11.2932 24.2581 10.312 24.2581 9.21202ZM20.5334 1.96549C20.9319 1.96549 21.258 2.29013 21.258 2.69014C21.258 3.09015 20.9319 3.41479 20.5334 3.41479C20.1348 3.41479 19.8087 3.09015 19.8087 2.69014C19.8087 2.29013 20.1348 1.96549 20.5334 1.96549ZM7.48964 11.386C7.48964 10.5874 8.14038 9.93667 8.93895 9.93667C9.73752 9.93667 10.3883 10.5874 10.3883 11.386C10.3883 12.186 9.73752 12.8353 8.93895 12.8353C8.14038 12.8353 7.48964 12.186 7.48964 11.386ZM15.9087 16.1933C14.9086 16.9165 13.7347 17.2788 12.5622 17.2788C11.3897 17.2788 10.2158 16.9165 9.21577 16.1933C8.89112 15.9585 8.81866 15.5049 9.05344 15.1817C9.28823 14.8585 9.74186 14.786 10.0651 15.0194C11.5593 16.0991 13.5651 16.102 15.0594 15.0194C15.3826 14.786 15.8347 14.8556 16.071 15.1817C16.3058 15.5063 16.2318 15.9585 15.9087 16.1933ZM16.1855 12.8353C15.3855 12.8353 14.7362 12.186 14.7362 11.386C14.7362 10.5874 15.3855 9.93667 16.1855 9.93667C16.9855 9.93667 17.6348 10.5874 17.6348 11.386C17.6348 12.186 16.9855 12.8353 16.1855 12.8353Z" fill="#72757E"/>
</svg>
